HIERARCHY
ROOT Hips
{
	OFFSET 0.000000 0.000000 0.000000 
	CHANNELS 6 Xposition Yposition Zposition Yrotation Zrotation Xrotation 
	JOINT Lumbar
	{
		OFFSET 0.000000 0.000000 0.000000 
		CHANNELS 3 Zrotation Xrotation Yrotation
		JOINT Neck
		{
			OFFSET 0.000000 0.445665 0.000000 
			CHANNELS 3 Zrotation Xrotation Yrotation
			End Site
			{
				OFFSET 0.000000 0.227535 0.000000 
			}
		}
		JOINT RightShoulder
		{
			OFFSET 0.019635 0.377685 0.194865 
			CHANNELS 3 Zrotation Xrotation Yrotation
			JOINT RightElbow
			{
				OFFSET 0.000000 -0.243375 0.000000 
				CHANNELS 2 Zrotation Yrotation
				JOINT RightWrist
				{
					OFFSET 0.000000 -0.264825 0.000000 
					CHANNELS 2 Zrotation Xrotation
					End Site
					{
						OFFSET 0.006600 -0.176220 0.000990 
					}
				}
			}
		}
		JOINT LeftShoulder
		{
			OFFSET 0.019635 0.377685 -0.194865 
			CHANNELS 3 Zrotation Xrotation Yrotation
			JOINT LeftElbow
			{
				OFFSET 0.000000 -0.243375 0.000000 
				CHANNELS 2 Zrotation Yrotation
				JOINT LeftWrist
				{
					OFFSET 0.000000 -0.264825 0.000000 
					CHANNELS 2 Zrotation Xrotation
					End Site
					{
						OFFSET 0.006600 -0.176220 -0.000990 
					}
				}
			}
		}
	}
	JOINT RightHip
	{
		OFFSET 0.052140 -0.069960 0.075570 
		CHANNELS 3 Zrotation Xrotation Yrotation
		JOINT RightKnee
		{
			OFFSET 0.000000 -0.402270 0.000000 
			CHANNELS 1 Zrotation
			JOINT RightAnkle
			{
				OFFSET 0.000000 -0.404085 0.000000 
				CHANNELS 3 Zrotation Xrotation Yrotation
				End Site
				{
					OFFSET 0.204105 -0.089430 0.008415 
				}
			}
		}
	}
	JOINT LeftHip
	{
		OFFSET 0.052140 -0.069960 -0.075570 
		CHANNELS 3 Zrotation Xrotation Yrotation
		JOINT LeftKnee
		{
			OFFSET 0.000000 -0.402270 0.000000 
			CHANNELS 1 Zrotation
			JOINT LeftAnkle
			{
				OFFSET 0.000000 -0.404085 0.000000 
				CHANNELS 3 Zrotation Xrotation Yrotation
				End Site
				{
					OFFSET 0.204105 -0.089430 -0.008415 
				}
			}
		}
	}
}
MOTION
Frames: 11
Frame Time: 0.02
-2.47856 -0.50875 -0.44834 543.31131 -24.82074 13.33697 19.23959 -2.2024 -4.06102 -3.47503 10.43518 -0.83079 29.8287 -20.58623 -5.21683 73.33493 69.64572 -7.5662 3.28558 4.73956 11.36264 -5.04842 98.45845 -81.42204 -2.3079 -0.29226 -0.25252 -7.34698 -17.1552 -89.45057 -6.84333 -3.52892 -2.49513 84.77531 12.1564 3.18378 -136.07355 -5.97122 1.38607 1.30277
-2.47936 -0.50847 -0.44992 543.47155 -24.81812 13.43773 19.32649 -2.24812 -4.48503 -3.30064 9.9929 -0.83079 29.33318 -20.91371 -4.59243 74.3476 71.01774 -7.40428 2.56802 5.07913 11.38385 -5.41949 98.42209 -81.42611 -2.26651 0.11669 -0.3116 -7.076 -17.11855 -89.17655 -6.88118 -3.55788 -2.51108 84.70506 12.28473 3.42854 -136.07809 -5.94373 1.4141 1.31731
-2.48042 -0.50814 -0.45153 543.58539 -24.78222 13.54657 19.42884 -2.31456 -4.89825 -3.08841 9.47196 -0.83079 29.236 -21.44275 -3.69692 75.68049 72.9868 -7.23197 1.52681 5.37374 11.41634 -5.78496 98.42734 -81.42335 -2.21908 0.62003 -0.42295 -6.80441 -17.03559 -88.91197 -6.91775 -3.60074 -2.53446 84.5592 12.41309 3.68096 -136.08957 -5.91516 1.44333 1.33146
-2.48137 -0.50782 -0.45311 543.71835 -24.76429 13.65488 19.52985 -2.36957 -5.31359 -2.8891 8.98148 -0.83079 29.0122 -21.88984 -2.90242 76.89858 74.63142 -7.06865 0.66657 5.68729 11.44112 -6.14854 98.41362 -81.42546 -2.17325 1.06565 -0.50947 -6.5427 -16.97551 -88.64295 -6.95442 -3.63591 -2.55375 84.44623 12.54072 3.93404 -136.09652 -5.88761 1.47129 1.34538
-2.4823 -0.50753 -0.45478 543.8597 -24.73479 13.7503 19.60853 -2.43421 -5.74279 -2.70715 8.51049 -0.83079 28.55893 -22.30212 -2.1952 77.99841 76.50923 -6.88461 -0.32994 6.00738 11.47667 -6.5297 98.39979 -81.4224 -2.13049 1.57658 -0.59936 -6.23513 -16.90327 -88.37136 -6.99379 -3.67734 -2.57631 84.33901 12.67204 4.17189 -136.10941 -5.85755 1.50269 1.36122
-2.48333 -0.50719 -0.45625 543.97224 -24.72045 13.87382 19.73668 -2.48343 -6.13946 -2.4812 7.9825 -0.83079 28.68452 -22.83012 -1.24189 79.41078 78.03684 -6.7436 -1.12175 6.3034 11.49246 -6.87389 98.39546 -81.42755 -2.08062 1.971 -0.69663 -6.02521 -16.8479 -88.10786 -7.02698 -3.70877 -2.59369 84.20087 12.79537 4.4403 -136.11133 -5.83269 1.52694 1.37283
-2.4846 -0.50676 -0.45717 544.02012 -24.76693 14.07955 19.99881 -2.4832 -6.45214 -2.13242 7.30181 -0.83079 30.23188 -23.65734 0.29439 81.6724 78.48913 -6.70756 -1.27463 6.53968 11.45175 -7.11128 98.41639 -81.45772 -2.01172 2.04541 -0.78232 -6.08118 -16.83898 -87.87352 -7.04339 -3.71023 -2.59561 84.01026 12.89712 4.81746 -136.08347 -5.82085 1.53261 1.3735
-2.48597 -0.50629 -0.45788 544.04002 -24.82789 14.31205 20.30982 -2.46703 -6.73136 -1.74274 6.56961 -0.83079 32.36105 -24.58778 2.0726 84.2229 78.56249 -6.71804 -1.21133 6.75393 11.39077 -7.31319 98.44395 -81.49597 -1.93599 1.99601 -0.87692 -6.23614 -16.85056 -87.64583 -7.05359 -3.70099 -2.59196 83.78874 12.9906 5.22024 -136.04387 -5.81459 1.53074 1.36979
-2.4873 -0.50585 -0.45869 544.07045 -24.87523 14.52807 20.59738 -2.45893 -7.02383 -1.37848 5.87045 -0.83079 34.27557 -25.45207 3.75941 86.60029 78.78123 -6.7187 -1.2431 6.98105 11.33843 -7.53503 98.46258 -81.52968 -1.8646 1.98516 -0.9802 -6.34998 -16.86163 -87.40974 -7.06648 -3.69577 -2.59032 83.57216 13.08751 5.59412 -136.00828 -5.80686 1.53129 1.36761
-2.4886 -0.50538 -0.45949 544.10841 -24.95109 14.76274 20.89044 -2.44744 -7.32516 -0.98342 5.12691 -0.83079 35.99689 -26.40649 5.38037 89.17284 79.12603 -6.67285 -1.29527 7.19478 11.28841 -7.73934 98.50747 -81.56671 -1.78894 2.0466 -1.03245 -6.45044 -16.83671 -87.19678 -7.0797 -3.69421 -2.59092 83.3913 13.18597 6.04114 -135.97874 -5.79466 1.53606 1.36732
-2.48999 -0.50495 -0.46026 544.12474 -24.97144 14.96462 21.1838 -2.43976 -7.59904 -0.6441 4.46577 -0.83079 38.25001 -27.19277 7.18886 91.39417 79.12067 -6.73297 -1.25466 7.43146 11.22921 -7.97339 98.49889 -81.59902 -1.71913 1.93412 -1.1913 -6.5985 -16.88864 -86.93688 -7.09102 -3.68278 -2.58572 83.12979 13.27904 6.34177 -135.93343 -5.79304 1.53034 1.3621
